<svg width="20" height="20" viewBox="0 0 20 20" fill="none" xmlns="http://www.w3.org/2000/svg">
<path opacity="0.2" d="M13.75 2.5H6.25C5.25544 2.5 4.30161 2.89509 3.59835 3.59835C2.89509 4.30161 2.5 5.25544 2.5 6.25V13.75C2.5 14.7446 2.89509 15.6984 3.59835 16.4017C4.30161 17.1049 5.25544 17.5 6.25 17.5H13.75C14.7446 17.5 15.6984 17.1049 16.4017 16.4017C17.1049 15.6984 17.5 14.7446 17.5 13.75V6.25C17.5 5.25544 17.1049 4.30161 16.4017 3.59835C15.6984 2.89509 14.7446 2.5 13.75 2.5ZM10 13.125C9.38193 13.125 8.77775 12.9417 8.26384 12.5983C7.74994 12.255 7.3494 11.7669 7.11288 11.1959C6.87635 10.6249 6.81447 9.99653 6.93505 9.39034C7.05562 8.78415 7.35325 8.22733 7.79029 7.79029C8.22733 7.35325 8.78415 7.05562 9.39034 6.93505C9.99653 6.81447 10.6249 6.87635 11.1959 7.11288C11.7669 7.3494 12.255 7.74994 12.5983 8.26384C12.9417 8.77775 13.125 9.38193 13.125 10C13.125 10.8288 12.7958 11.6237 12.2097 12.2097C11.6237 12.7958 10.8288 13.125 10 13.125Z" fill="black"/>
<path d="M13.75 1.875H6.25C5.09006 1.87624 3.97798 2.33758 3.15778 3.15778C2.33758 3.97798 1.87624 5.09006 1.875 6.25V13.75C1.87624 14.9099 2.33758 16.022 3.15778 16.8422C3.97798 17.6624 5.09006 18.1238 6.25 18.125H13.75C14.9099 18.1238 16.022 17.6624 16.8422 16.8422C17.6624 16.022 18.1238 14.9099 18.125 13.75V6.25C18.1238 5.09006 17.6624 3.97798 16.8422 3.15778C16.022 2.33758 14.9099 1.87624 13.75 1.875ZM16.875 13.75C16.875 14.5788 16.5458 15.3737 15.9597 15.9597C15.3737 16.5458 14.5788 16.875 13.75 16.875H6.25C5.4212 16.875 4.62634 16.5458 4.04029 15.9597C3.45424 15.3737 3.125 14.5788 3.125 13.75V6.25C3.125 5.4212 3.45424 4.62634 4.04029 4.04029C4.62634 3.45424 5.4212 3.125 6.25 3.125H13.75C14.5788 3.125 15.3737 3.45424 15.9597 4.04029C16.5458 4.62634 16.875 5.4212 16.875 6.25V13.75ZM10 6.25C9.25832 6.25 8.5333 6.46993 7.91661 6.88199C7.29993 7.29404 6.81928 7.87971 6.53545 8.56494C6.25162 9.25016 6.17736 10.0042 6.32206 10.7316C6.46675 11.459 6.8239 12.1272 7.34835 12.6517C7.8728 13.1761 8.54098 13.5333 9.26841 13.6779C9.99584 13.8226 10.7498 13.7484 11.4351 13.4645C12.1203 13.1807 12.706 12.7001 13.118 12.0834C13.5301 11.4667 13.75 10.7417 13.75 10C13.749 9.00576 13.3535 8.05253 12.6505 7.34949C11.9475 6.64645 10.9942 6.25103 10 6.25ZM10 12.5C9.50555 12.5 9.0222 12.3534 8.61107 12.0787C8.19995 11.804 7.87952 11.4135 7.6903 10.9567C7.50108 10.4999 7.45157 9.99723 7.54804 9.51227C7.6445 9.02732 7.8826 8.58186 8.23223 8.23223C8.58186 7.8826 9.02732 7.6445 9.51227 7.54804C9.99723 7.45157 10.4999 7.50108 10.9567 7.6903C11.4135 7.87952 11.804 8.19995 12.0787 8.61107C12.3534 9.0222 12.5 9.50555 12.5 10C12.5 10.663 12.2366 11.2989 11.7678 11.7678C11.2989 12.2366 10.663 12.5 10 12.5ZM15 5.9375C15 6.12292 14.945 6.30418 14.842 6.45835C14.739 6.61252 14.5926 6.73268 14.4213 6.80364C14.25 6.87459 14.0615 6.89316 13.8796 6.85699C13.6977 6.82081 13.5307 6.73152 13.3996 6.60041C13.2685 6.4693 13.1792 6.30225 13.143 6.1204C13.1068 5.93854 13.1254 5.75004 13.1964 5.57873C13.2673 5.40743 13.3875 5.26101 13.5417 5.158C13.6958 5.05498 13.8771 5 14.0625 5C14.3111 5 14.5496 5.09877 14.7254 5.27459C14.9012 5.4504 15 5.68886 15 5.9375Z" fill="black"/>
</svg>
