<svg width="27" height="27" viewBox="0 0 27 27" fill="none" xmlns="http://www.w3.org/2000/svg">
<path d="M13.2996 20.8827C13.0652 21.1168 12.7475 21.2483 12.4162 21.2483C12.085 21.2483 11.7673 21.1168 11.5329 20.8827L4.44955 13.7994C4.21547 13.565 4.08398 13.2473 4.08398 12.916C4.08398 12.5848 4.21547 12.2671 4.44955 12.0327L11.5329 4.94938C11.7698 4.72831 12.0833 4.60787 12.4073 4.61347C12.7313 4.61906 13.0404 4.75025 13.2696 4.97938C13.4987 5.20851 13.6299 5.51766 13.6355 5.84165C13.6411 6.16563 13.5206 6.47913 13.2996 6.71604L8.34955 11.666H20.7496C21.0811 11.666 21.399 11.7977 21.6334 12.0322C21.8679 12.2666 21.9996 12.5845 21.9996 12.916C21.9996 13.2476 21.8679 13.5655 21.6334 13.7999C21.399 14.0343 21.0811 14.166 20.7496 14.166H8.34955L13.2996 19.116C13.5336 19.3504 13.6651 19.6681 13.6651 19.9994C13.6651 20.3306 13.5336 20.6483 13.2996 20.8827Z" fill="currentColor"/>
</svg>
