<svg width="27" height="27" viewBox="0 0 27 27" fill="none" xmlns="http://www.w3.org/2000/svg">
<path d="M13.6995 5.78331C13.9338 5.54922 14.2516 5.41774 14.5828 5.41774C14.9141 5.41774 15.2318 5.54922 15.4661 5.78331L22.5495 12.8666C22.7836 13.101 22.915 13.4187 22.915 13.75C22.915 14.0812 22.7836 14.3989 22.5495 14.6333L15.4661 21.7166C15.2292 21.9377 14.9157 22.0581 14.5917 22.0525C14.2678 22.047 13.9586 21.9158 13.7295 21.6866C13.5003 21.4575 13.3692 21.1484 13.3636 20.8244C13.358 20.5004 13.4784 20.1869 13.6995 19.95L18.6495 15L6.24947 15C5.91795 15 5.60001 14.8683 5.36559 14.6339C5.13117 14.3994 4.99947 14.0815 4.99947 13.75C4.99947 13.4185 5.13117 13.1005 5.36559 12.8661C5.60001 12.6317 5.91795 12.5 6.24947 12.5L18.6495 12.5L13.6995 7.54997C13.4654 7.3156 13.3339 6.99789 13.3339 6.66664C13.3339 6.33539 13.4654 6.01768 13.6995 5.78331Z" fill="currentColor"/>
</svg>
